<svg width="33" height="33" viewBox="0 0 33 33" fill="none" xmlns="http://www.w3.org/2000/svg">
<circle cx="16.5" cy="16.5" r="16.5" fill="white"/>
<path d="M23.6616 20.4531C23.6209 20.3305 23.3621 20.1499 22.8852 19.9117C22.756 19.8367 22.5719 19.7347 22.3338 19.6052C22.0954 19.4758 21.879 19.3565 21.685 19.2475C21.4906 19.1386 21.3085 19.033 21.1383 18.931C21.1111 18.9106 21.026 18.8511 20.883 18.7521C20.7398 18.6534 20.6191 18.5802 20.5201 18.5324C20.4214 18.4849 20.3243 18.461 20.2289 18.461C20.0927 18.461 19.9226 18.5581 19.7183 18.7521C19.5141 18.9463 19.3267 19.1573 19.1565 19.3857C18.9863 19.6139 18.8057 19.8249 18.6152 20.019C18.4244 20.2132 18.2676 20.3102 18.1452 20.3102C18.0837 20.3102 18.007 20.2931 17.9152 20.2593C17.8234 20.2252 17.7535 20.1961 17.7056 20.1726C17.658 20.1486 17.5765 20.101 17.4606 20.0293C17.3445 19.9578 17.28 19.9186 17.2664 19.9117C16.3333 19.394 15.533 18.8014 14.8654 18.1342C14.1981 17.4666 13.6054 16.6664 13.0878 15.7333C13.081 15.7197 13.0417 15.6549 12.9703 15.5392C12.8987 15.4234 12.851 15.3418 12.8272 15.2939C12.8033 15.2463 12.7744 15.1765 12.7404 15.0845C12.7064 14.9926 12.6893 14.916 12.6893 14.8547C12.6893 14.7322 12.7864 14.5754 12.9805 14.3847C13.1746 14.1941 13.3858 14.0135 13.6139 13.8434C13.8422 13.6732 14.0532 13.4859 14.2474 13.2816C14.4415 13.0773 14.5385 12.9071 14.5385 12.7709C14.5385 12.6756 14.5147 12.5785 14.4671 12.4797C14.4194 12.3808 14.3462 12.2601 14.2474 12.117C14.1485 11.974 14.0889 11.8889 14.0685 11.8615C13.9664 11.6914 13.861 11.5092 13.7519 11.3151C13.6427 11.121 13.5237 10.9047 13.3942 10.6663C13.2648 10.4281 13.1627 10.2441 13.0877 10.1147C12.8495 9.63806 12.669 9.37914 12.5464 9.33842C12.4987 9.31798 12.4271 9.30768 12.3318 9.30768C12.1478 9.30768 11.9078 9.34167 11.6115 9.40987C11.3152 9.47797 11.0819 9.54939 10.9116 9.62443C10.5711 9.76738 10.2101 10.1828 9.82865 10.8706C9.48128 11.5107 9.30762 12.1442 9.30762 12.7707C9.30762 12.9545 9.31953 13.1332 9.34337 13.3071C9.3672 13.4807 9.40978 13.6766 9.47115 13.8946C9.53242 14.1125 9.58184 14.2744 9.6192 14.3798C9.65659 14.4853 9.72641 14.6742 9.82861 14.9467C9.93067 15.2192 9.99204 15.386 10.0125 15.4473C10.2508 16.1148 10.5335 16.7107 10.8604 17.2351C11.3982 18.1069 12.1322 19.0078 13.0619 19.9375C13.9917 20.8671 14.8924 21.601 15.7643 22.139C16.2887 22.4659 16.8849 22.7485 17.5523 22.987C17.6136 23.0073 17.7804 23.0686 18.0528 23.171C18.3252 23.2731 18.5143 23.3429 18.6198 23.3804C18.7253 23.4179 18.8872 23.4673 19.105 23.5287C19.3232 23.5901 19.5189 23.6326 19.6925 23.6567C19.8663 23.6802 20.0451 23.6923 20.2289 23.6923C20.8555 23.6923 21.4891 23.5185 22.1293 23.1712C22.817 22.7899 23.2324 22.4289 23.3754 22.0881C23.4506 21.918 23.5219 21.6847 23.59 21.3884C23.6583 21.0922 23.6922 20.8522 23.6922 20.6682C23.6924 20.5726 23.6822 20.5012 23.6616 20.4531Z" fill="#07086C"/>
</svg>
